<?xml version="1.0" encoding="utf-8"?>
<!-- Generator: Adobe Illustrator 16.0.3, SVG Export Plug-In . SVG Version: 6.00 Build 0)  -->
<!DOCTYPE svg PUBLIC "-//W3C//DTD SVG 1.1//EN" "http://www.w3.org/Graphics/SVG/1.1/DTD/svg11.dtd">
<svg version="1.1" id="Ebene_1" xmlns="http://www.w3.org/2000/svg" xmlns:xlink="http://www.w3.org/1999/xlink" x="0px" y="0px"
	 width="220px" height="220px" viewBox="0 0 220 220" enable-background="new 0 0 220 220" xml:space="preserve">
<rect x="86" y="93" fill="#1B1464" width="48" height="47"/>
<rect x="90" y="77" fill="#1B1464" width="7" height="16"/>
<path fill="#3FA9F5" d="M83.434,220c0-15,12.043-26.576,26.898-26.576c14.856,0,26.898,11.576,26.898,26.576H83.434z
	 M200.29,219.838c0-49.639-40.467-89.919-90.104-89.919C60.548,129.919,20,170.197,20,219.835V220h180.37L200.29,219.838z"/>
<polyline fill="#3FA9F5" points="34.16,171.822 25.117,148.975 39.149,134.942 61.997,143.985 "/>
<polyline fill="#3FA9F5" points="158.16,143.984 181.008,134.942 195.04,148.975 185.998,171.822 "/>
<polygon fill="#3FA9F5" points="197.854,220 197.702,200.395 220,210.234 220,220 "/>
<polygon fill="#3FA9F5" points="0,220 0,210.234 22.59,200.395 22.61,220 "/>
<polygon fill="#1B1464" points="78.661,100 109.696,68.965 140.732,100 "/>
</svg>
